<svg width="17" height="19" viewBox="0 0 17 19" fill="none" xmlns="http://www.w3.org/2000/svg">
<path d="M11.0013 16.88C11.0413 17.18 10.9413 17.5 10.7113 17.71C10.3213 18.1 9.69132 18.1 9.30132 17.71L5.29132 13.7C5.06132 13.47 4.96132 13.16 5.00132 12.87V7.75L0.211323 1.62C-0.128677 1.19 -0.0486774 0.56 0.381323 0.22C0.571323 0.08 0.781323 0 1.00132 0H15.0013C15.2213 0 15.4313 0.08 15.6213 0.22C16.0513 0.56 16.1313 1.19 15.7913 1.62L11.0013 7.75V16.88ZM3.04132 2L7.00132 7.06V12.58L9.00132 14.58V7.05L12.9613 2H3.04132Z" fill="#937D68"/>
</svg>
